<?xml version="1.0" standalone="no"?>
<!DOCTYPE svg PUBLIC "-//W3C//DTD SVG 20010904//EN"
 "http://www.w3.org/TR/2001/REC-SVG-20010904/DTD/svg10.dtd">
<svg version="1.0" xmlns="http://www.w3.org/2000/svg"
 width="181.000000pt" height="181.000000pt" viewBox="0 0 181.000000 181.000000"
 preserveAspectRatio="xMidYMid meet">
<metadata>
Created by potrace 1.14, written by Peter Selinger 2001-2017
</metadata>
<g transform="translate(0.000000,181.000000) scale(0.100000,-0.100000)"
fill="#000000" stroke="none">
<path d="M163 1442 c-9 -5 24 -42 99 -112 103 -96 187 -175 309 -291 82 -78
291 -274 313 -292 14 -13 30 -17 49 -13 37 8 723 696 704 708 -16 10 -1458 10
-1474 0z"/>
<path d="M1490 1160 c-129 -132 -236 -242 -238 -244 -2 -2 11 -18 30 -36 18
-17 128 -126 244 -241 143 -141 216 -207 227 -204 8 4 23 24 33 47 17 37 18
73 18 427 0 355 -2 389 -19 421 -14 27 -53 73 -59 69 -1 0 -107 -108 -236
-239z"/>
<path d="M36 1347 l-26 -44 0 -397 c0 -347 2 -401 16 -429 19 -36 38 -57 52
-57 6 0 45 34 88 76 44 42 157 151 252 242 l173 166 -49 45 c-54 50 -116 108
-320 301 -73 68 -139 128 -147 133 -10 5 -21 -5 -39 -36z"/>
<path d="M529 737 c-63 -62 -175 -169 -247 -238 -97 -94 -128 -129 -116 -133
21 -8 1453 -7 1483 1 22 6 3 27 -219 245 l-244 238 -116 -113 c-63 -63 -124
-117 -134 -121 -25 -9 -55 12 -146 99 -81 78 -142 135 -144 135 -1 0 -53 -51
-117 -113z"/>
</g>
</svg>
